<?xml version="1.0" encoding="UTF-8" standalone="no"?>
<!-- Created with Inkscape (http://www.inkscape.org/) -->

<svg
   width="127.04858mm"
   height="130.0571mm"
   viewBox="0 0 127.04858 130.0571"
   version="1.1"
   id="svg1084"
   xmlns="http://www.w3.org/2000/svg"
   xmlns:svg="http://www.w3.org/2000/svg">
  <defs
     id="defs1081">
    <rect
       x="240.07857"
       y="693.60779"
       width="524.25269"
       height="571.11969"
       id="rect1257" />
  </defs>
  <g
     id="layer1"
     transform="translate(-28.365523,-65.05879)">
    <text
       xml:space="preserve"
       transform="matrix(0.18356335,0,0,0.3169289,21.977781,-99.445013)"
       id="text1255"
       style="font-size:261.88px;white-space:pre;shape-inside:url(#rect1257);shape-padding:1.30218;fill:none;stroke:#000000"><tspan
         x="241.38086"
         y="926.61258"
         id="tspan2187"><tspan
           style="font-family:'Microsoft Himalaya';-inkscape-font-specification:'Microsoft Himalaya';fill:#000000"
           id="tspan2185">A.I.</tspan></tspan></text>
    <path
       style="fill:#000000;fill-opacity:1;fill-rule:nonzero;stroke:none;stroke-width:0.304598"
       id="path2113"
       d="M 56.498428,70.588874 C 55.55019,69.280392 54.617369,67.952297 53.60731,66.756999 52.148104,65.08766 50.498989,64.851609 48.719572,65.193458 48.400145,65.254825 48.103113,65.479645 47.794884,65.622738 45.527032,66.998238 43.64649,69.356627 41.962899,72.01623 39.933239,75.302402 38.551565,79.284615 37.318831,83.360024 36.141647,87.346691 35.305765,91.535015 34.533214,95.740988 33.832124,99.709904 33.252769,103.72609 32.685924,107.74455 31.982219,112.87313 31.431697,118.04784 30.870642,123.21694 30.37005,127.85822 30.088936,132.54518 29.795981,137.22555 29.586863,140.99752 29.316804,144.76034 29.037791,148.52128 28.88579,150.95474 28.687901,153.38018 28.486663,155.80483 28.467497,156.00533 28.294849,157.97397 28.398334,158.04519 30.697309,159.62765 30.282891,159.97838 31.093676,158.36183 31.70936,157.0264 32.343659,155.71181 33.005745,154.43026 33.846832,152.77836 34.814048,151.30834 35.838473,149.9314 36.319634,149.42903 36.815383,148.50486 37.435683,148.38833 37.529326,148.37074 37.808809,148.43625 37.715311,148.4556 37.237443,148.55455 36.753921,148.5712 36.273224,148.62899 37.037363,148.47902 37.601716,149.56427 38.081912,150.32438 38.664469,151.23189 39.18294,152.35602 39.98452,152.83272 40.162001,152.93827 40.35174,152.98607 40.53535,153.06274 41.2898,152.98339 42.051766,153.00668 42.798702,152.82469 43.017628,152.77136 43.200642,152.5348 43.393491,152.36633 44.379685,151.50481 45.185892,150.27335 45.977792,149.04396 47.523736,146.43519 48.988054,143.7155 50.489099,141.04576 51.382749,139.43257 52.308685,137.86324 53.23767,136.29857 53.257342,136.31759 53.318996,136.36562 53.296689,136.35564 52.463716,135.98364 51.656537,135.44919 50.803163,135.21129 50.726517,135.18994 49.605928,138.92302 49.546919,139.11881 48.655291,142.14666 48.109056,145.35577 47.830101,148.64378 47.79913,149.99813 47.642329,151.76339 48.305234,152.87646 48.485684,153.17944 48.68759,153.54683 48.951795,153.60377 49.756178,153.7771 50.575963,153.56176 51.388048,153.54074 53.606669,151.70924 55.252779,148.59488 56.88868,145.71774 58.290232,143.17743 59.651419,140.58519 61.034841,138.02147 61.26974,138.04853 61.329635,137.16889 61.597113,137.13163 61.648528,137.12445 61.670631,137.38095 61.619709,137.36788 60.837053,137.16711 60.079751,136.77214 59.300451,136.54245 59.232443,136.52241 59.116506,137.25894 59.066327,137.50492 58.282059,141.07418 57.473659,144.63038 56.638576,148.17207 55.317817,153.91243 53.530558,159.33303 51.41982,164.46864 50.497252,166.30432 49.269135,169.57593 47.764379,170.42652 47.55959,170.54229 46.899951,170.60481 47.114481,170.54405 47.485819,170.43889 47.861749,170.37678 48.235383,170.29313 48.144825,170.23001 48.030713,170.21696 47.963716,170.10378 47.370512,169.1017 47.89265,166.86928 48.208652,165.89509 48.373327,165.38743 48.58433,164.91875 48.77217,164.43058 50.522741,160.81161 52.899503,158.09226 55.171374,155.30556 58.296752,151.26326 61.380362,147.14639 64.554113,143.19391 65.768056,141.78552 66.933654,140.26019 68.196669,138.95287 68.457625,138.68277 69.232367,137.87371 69.649914,137.8578 69.781626,137.85278 69.883017,138.04727 69.999568,138.142 69.53518,138.12494 69.070289,138.05322 68.606409,138.09081 68.571023,138.09368 68.609515,138.20007 68.608744,138.25469 68.604251,138.57294 68.614395,138.89304 68.59062,139.20926 68.463392,140.90128 68.118675,142.50357 67.776211,144.11256 67.167498,146.74749 66.373849,149.26217 65.55008,151.74884 65.529185,151.90064 65.389301,152.16965 65.487401,152.20424 66.295285,152.4891 67.136186,152.73191 67.96041,152.59877 68.184959,152.56248 68.216924,152.02568 68.347904,151.74212 69.051497,150.21879 69.798408,148.75557 70.553869,147.29294 72.157673,144.30253 73.766638,141.27187 75.735926,138.83294 75.982393,138.61763 76.215774,138.36197 76.475327,138.187 77.880153,137.23999 79.827253,137.15892 81.343258,137.00248 82.152133,136.93011 82.961968,136.88674 83.772074,136.86778 83.933248,136.86403 84.416706,136.8704 84.255628,136.86104 82.420544,136.75444 82.934571,137.56045 82.418169,135.40308 82.336693,135.4807 82.244156,135.53584 82.17374,135.63594 81.892482,136.03574 81.056905,137.52187 80.882632,137.83732 79.984767,139.46251 79.199622,141.15718 78.434234,142.93398 77.835496,144.60518 76.270391,148.49445 77.327641,150.39533 77.537476,150.77261 77.861036,150.95357 78.127732,151.23268 78.937176,151.06298 79.776606,151.10053 80.556064,150.72358 80.888114,150.56301 82.261504,148.48986 82.442039,148.20409 83.457295,146.59706 84.338799,144.81924 85.226146,143.0469 86.257224,140.93566 87.214984,138.74295 88.179344,136.55899 88.219715,136.47713 88.363893,136.34515 88.300455,136.31343 87.560318,135.94343 86.803705,135.5968 86.02909,135.48405 85.960241,135.47402 84.978352,139.38676 84.921326,139.63188 84.254772,142.74265 84.142776,145.81105 84.557167,149.00613 85.204874,151.79268 85.776623,152.41073 88.021128,152.16515 88.417381,152.1218 89.4974,150.63896 89.719991,150.35955 91.665165,147.52972 93.17311,144.09688 94.654608,140.68952 95.128854,139.57879 95.601103,138.46576 96.061931,137.34162 96.310091,136.73626 96.449259,136.13785 96.536501,136.36151 95.74642,136.15626 94.967271,135.71871 94.166251,135.74576 94.012365,135.75097 94.106736,136.21152 94.077542,136.44455 93.816271,138.52996 93.636401,140.62356 93.471727,142.7318 93.357526,145.41254 93.095409,148.25437 93.563011,150.90047 93.627335,151.26447 93.738173,151.60502 93.825754,151.95728 93.997767,152.25416 94.089816,152.7612 94.341794,152.84793 95.123509,153.11692 95.953234,153.16238 96.7435,152.96136 97.049153,152.88362 97.237462,152.38175 97.462873,152.05408 98.234875,150.93174 98.789973,149.55735 99.360718,148.19506 100.24068,145.99738 100.97753,143.67842 101.74054,141.38288 101.94262,140.48172 102.2543,141.53047 102.09338,141.57419 101.60299,141.70739 101.09638,141.44755 100.60011,141.51061 100.48114,141.52572 100.82377,141.641 100.931,141.72187 101.13417,141.87513 101.33058,142.0488 101.53038,142.21228 103.32151,143.61306 105.18237,143.51792 107.14987,142.92898 107.90578,142.70272 108.84313,141.6517 109.46187,141.04597 111.06408,139.01295 112.41352,136.40881 112.95378,133.26498 113.03217,132.80883 113.06172,132.33598 113.1157,131.87149 113.10099,131.45685 113.13035,131.03281 113.07155,130.62757 112.71591,128.17634 111.29311,128.19314 109.80273,128.39009 109.45103,128.43657 108.47037,129.79164 108.25302,130.06849 106.34309,133.32263 105.58486,137.21729 105.12055,141.45034 105.02311,143.73991 104.81688,147.21468 106.13438,148.89052 106.3645,149.18322 106.65762,149.33256 106.91923,149.55359 107.77178,149.48664 108.63797,149.59635 109.47689,149.35274 109.81815,149.25363 111.17678,147.73551 111.40225,147.47951 112.42221,146.32154 113.37488,145.03021 114.34106,143.76979 115.28754,142.74492 116.6065,140.40704 117.80837,140.19965 117.98844,140.16859 118.52276,140.2798 118.34497,140.3336 117.89511,140.46974 117.42953,140.41309 116.9718,140.45283 117.03506,140.53898 117.11918,140.59874 117.16156,140.71128 117.59428,141.86085 117.45558,143.90488 117.39744,145.18542 117.4467,147.52494 117.93617,147.48064 120.05448,147.08173 120.20184,147.05397 121.39153,144.33913 121.50862,144.0783 122.32109,142.40283 122.91571,140.33504 124.08625,139.15119 124.26881,138.96655 124.47339,138.83973 124.66695,138.68399 126.22542,137.92689 127.89129,137.85392 129.50565,137.51143 130.51853,137.23781 131.54689,137.06485 132.54916,136.70019 132.62759,136.67166 133.50741,136.33559 133.646,136.08484 133.79396,135.81718 133.8373,135.4463 133.93296,135.12705 133.10738,134.4732 132.33806,133.61176 131.45623,133.16552 131.26556,133.06902 131.09977,133.45041 130.92608,133.60541 130.34131,134.12732 129.70429,134.69252 129.27484,135.51924 129.11771,135.82172 129.01007,136.17815 128.87768,136.5076 128.82179,136.91661 128.71843,137.31686 128.71002,137.73465 128.67306,139.56795 129.52945,140.81491 130.09016,142.26996 130.21875,142.60361 130.31993,142.96062 130.43481,143.30596 131.00204,145.15962 130.74639,147.01583 130.4822,148.91596 130.17056,152.74633 132.50047,152.48422 134.38072,152.0619 134.83842,151.9591 135.24707,151.56186 135.68025,151.31183 138.83352,149.10902 141.85433,146.33128 144.43517,142.74718 144.94293,142.04203 145.41039,141.27081 145.898,140.53265 146.797,138.85134 149.39474,134.78184 148.42819,132.19172 148.27676,131.78592 147.99861,131.52994 147.78382,131.19907 146.97495,131.3403 146.13387,131.24678 145.35718,131.62274 145.03936,131.7766 144.85862,132.31177 144.65223,132.71495 143.91729,134.15063 143.4589,135.98765 143.25974,137.77642 143.18321,138.46383 143.17502,139.16522 143.13265,139.85963 143.05407,142.70812 143.46833,145.42681 144.77919,147.54234 145.6617,148.96658 146.14434,149.20162 147.25331,150.14118 148.65065,150.79382 149.37024,151.32321 150.90119,151.17497 151.72814,151.09488 152.52578,150.66254 153.34632,150.48499 154.03165,150.33672 154.72485,150.294 155.4141,150.19851 155.4141,150.19851 155.24808,149.92309 155.24808,149.92309 V 149.92309 C 154.72566,149.9188 154.1956,150.04769 153.68085,149.91024 153.1816,149.77693 152.73907,149.32244 152.2493,149.12236 151.24162,148.71069 150.17292,148.7088 149.19288,148.10125 148.79016,147.82707 148.36982,147.60761 147.98474,147.27869 146.07945,145.65133 145.41487,143.30826 145.46383,140.04285 145.56806,138.3545 145.68111,136.81134 146.25812,135.3211 146.39738,134.96143 146.56012,134.61783 146.75242,134.32198 146.89497,134.10264 147.41844,133.96558 147.2504,133.79449 146.8861,133.42365 146.38611,133.60427 145.95398,133.50916 146.01811,133.3115 146.02567,133.03538 146.14635,132.91614 146.21219,132.85109 146.31925,133.01563 146.33353,133.13416 146.36875,133.42635 146.3385,133.73885 146.27959,134.02181 145.86205,136.02757 144.8421,137.61261 143.98687,139.17187 143.51665,139.86508 143.06817,140.59515 142.57621,141.2515 140.02989,144.64865 137.03619,147.25893 133.87496,149.01199 131.42723,149.84472 132.9783,149.10523 133.56511,149.58013 133.68305,149.67558 133.32149,149.74684 133.20299,149.84058 133.14106,149.88957 133.09227,149.98311 133.02454,150.00773 132.89395,150.05519 132.64679,149.42692 132.96061,149.395 133.34751,147.04952 133.47801,144.67908 132.85973,142.38209 132.46742,141.05513 132.54677,141.17732 132.04342,140.01164 131.76704,139.37162 131.21786,138.67029 131.38661,137.8294 131.72388,137.22737 132.0917,136.80751 132.57084,136.48592 132.71568,136.3887 132.86449,136.2923 133.02072,136.25615 133.10745,136.23609 133.35273,136.39826 133.28039,136.32176 132.61456,135.61765 131.908,135.00979 131.22181,134.35382 131.29799,134.11981 131.45571,133.91349 131.45034,133.65179 131.44764,133.52045 131.29159,133.74813 131.21018,133.78692 131.02131,133.87693 130.83159,133.96331 130.63993,134.03799 129.69306,134.40693 128.72924,134.66608 127.76151,134.86317 125.99865,135.20352 124.14899,135.29948 122.58523,136.74329 121.94144,137.46467 121.83671,137.50541 121.29543,138.42121 120.50013,139.76679 119.95179,141.40481 119.22791,142.83481 118.98738,143.31762 118.59366,144.17311 118.27346,144.6017 118.20556,144.69259 117.94475,144.74129 118.03057,144.78273 118.66242,145.08779 119.34491,145.09967 119.97308,145.42231 120.01851,145.44564 119.7288,146.46234 119.85602,145.29395 119.90201,143.40652 120.01403,141.20204 119.48487,139.4365 119.35722,139.01066 119.15444,138.64865 118.98924,138.25472 118.19702,138.05686 117.41426,137.71877 116.61259,137.66119 116.3457,137.642 116.09214,137.86388 115.84735,138.02899 114.47222,138.95648 113.44548,140.77677 112.25953,142.12908 111.07189,143.63821 109.8701,145.38426 108.46147,146.40242 108.21491,146.58063 107.53175,146.46996 107.68908,146.81268 107.89796,147.2677 108.40436,146.97564 108.76201,147.05711 108.62412,147.13004 108.49373,147.29186 108.34833,147.27592 107.19923,147.14994 107.39179,142.78641 107.45201,141.77398 107.84551,138.12622 108.5334,134.46712 110.37802,131.9103 110.58648,131.72186 110.7793,131.48438 111.00339,131.34496 111.15614,131.24992 111.64553,131.30433 111.49061,131.21804 111.06126,130.97888 110.57284,131.08992 110.14041,130.86428 110.05083,130.81754 110.28989,130.6496 110.38429,130.64075 110.69639,130.61151 110.64926,131.32443 110.67092,131.52795 110.3306,134.85205 109.21019,137.13544 107.46647,139.10845 107.12948,139.38453 106.80734,139.70886 106.45551,139.93668 106.1233,140.1518 105.68369,140.04744 105.42332,140.43146 105.28372,140.63734 106.16483,140.50078 105.98912,140.62452 105.43581,141.01421 104.09335,140.52711 103.55066,140.14417 103.36362,139.99288 103.17108,139.85677 102.98953,139.69034 102.83749,139.55096 102.72404,139.28905 102.55161,139.22831 100.68146,138.56956 100.20324,138.22678 99.402943,140.47528 98.715816,142.72622 98.021402,144.97973 97.14801,147.07736 96.658912,148.17978 96.174179,149.44548 95.430947,150.20221 95.296967,150.33862 94.839792,150.37035 94.984027,150.47906 96.004651,151.24827 96.887587,150.55189 96.112913,151.08321 96.031007,150.89427 95.919813,150.7287 95.867185,150.51642 95.782653,150.17545 95.748538,149.80883 95.70783,149.44924 95.464876,147.30354 95.574618,145.11628 95.721304,142.96489 95.892644,140.92439 96.087917,138.90483 96.430014,136.9132 96.473432,136.66039 96.716275,136.29079 96.569848,136.15882 95.87377,135.5315 95.041094,135.36801 94.276723,134.9726 93.848021,136.6306 93.127699,138.0897 92.572794,139.6436 91.199571,142.90601 89.778813,146.21408 87.81566,148.71284 87.566494,148.94809 87.335657,149.23741 87.068165,149.4186 86.897477,149.53421 86.362859,149.43592 86.52009,149.59038 86.849135,149.9136 87.279942,149.86388 87.65997,149.99994 87.77397,150.04075 87.418524,149.969 87.318185,149.87612 86.995221,149.57715 86.903801,149.09225 86.744163,148.60435 86.290868,145.81758 86.423116,142.99475 87.052129,140.2832 87.386425,138.99876 87.381287,138.92981 87.771988,137.74896 87.869911,137.45299 87.977257,137.16465 88.082814,136.87501 88.148356,136.69516 88.403066,136.43831 88.285241,136.3406 86.234539,134.63976 86.445458,134.2345 86.011392,135.49022 85.143163,137.68632 84.228241,139.84177 83.225673,141.89842 82.370659,143.58785 81.515365,145.2711 80.485901,146.72341 80.194524,147.13448 79.893896,147.53409 79.569289,147.88093 79.322848,148.14424 78.673346,148.11405 78.780025,148.54612 78.901229,149.037 79.453872,148.70073 79.790795,148.77804 79.703594,148.97084 79.665694,149.25181 79.529196,149.35643 79.324642,149.51323 79.203355,148.75354 79.232172,148.40411 79.364543,146.79904 80.023091,145.37056 80.500854,143.98943 81.249719,142.29618 82.02023,140.69085 82.928296,139.18848 83.179237,138.77332 83.445771,138.38123 83.704511,137.97759 83.902998,137.69341 84.112711,137.42681 84.29998,137.12506 84.450489,136.88253 84.577083,136.60725 84.715637,136.34834 84.663433,135.70349 84.907492,134.77926 84.559027,134.41378 84.038314,133.8676 83.303671,134.24942 82.674507,134.20744 81.721467,134.14387 80.755347,134.5553 79.802923,134.5374 77.680751,134.85532 75.478664,135.1571 73.749367,137.28744 71.827418,139.95185 70.18517,143.03858 68.534062,146.0949 67.146498,148.70161 68.114633,146.87108 66.842701,149.30325 66.631526,149.70706 66.422859,150.11405 66.207723,150.51284 66.072932,150.7627 65.622922,151.05714 65.793074,151.24895 67.669881,153.36469 68.126932,151.25629 67.809835,152.5757 68.507757,149.93853 69.366277,147.3997 69.941323,144.68446 70.343205,142.75909 71.052108,139.74805 70.856871,137.70769 70.809053,137.20798 70.832012,136.52335 70.549186,136.26853 69.942297,135.72171 69.175811,135.80573 68.489123,135.57434 68.280139,135.68223 68.06278,135.75733 67.862173,135.89803 67.342168,136.26275 66.799126,136.88491 66.353502,137.40296 65.141222,138.81227 63.984149,140.33366 62.795424,141.78862 59.651294,145.80251 56.563543,149.92174 53.370355,153.84326 50.994469,156.77332 48.516916,159.64863 46.749815,163.52759 46.542256,164.09948 46.307327,164.64972 46.127135,165.24328 45.550227,167.14361 45.169714,169.70253 45.9223,171.64742 46.080469,172.05618 46.342392,172.34501 46.552439,172.69382 47.332793,172.72974 48.116435,172.91764 48.893503,172.80162 49.371492,172.73026 50.35775,171.57887 50.646684,171.18013 51.820196,169.56061 52.682637,167.47049 53.578206,165.50281 55.686412,160.21354 57.518806,154.68832 58.921361,148.85809 59.798192,145.30954 60.623315,141.73151 61.50603,138.18635 61.581325,137.87373 61.670513,137.56826 61.731916,137.24851 61.78608,136.96644 62.014173,136.54008 61.851833,136.38556 59.594588,134.23692 59.701856,134.70745 58.731302,136.65673 57.416566,139.24492 56.112443,141.84858 54.709076,144.32549 53.511477,146.36886 51.80369,149.53055 50.133047,150.61876 49.953373,150.7358 49.755201,150.76831 49.566278,150.84307 50.003925,150.91161 50.463438,150.82717 50.879224,151.04867 50.916343,151.06845 50.647879,151.69135 50.467961,151.37032 50.126154,150.76041 50.336402,149.57817 50.29992,148.89734 50.53131,145.81933 51.059299,142.82766 51.941107,140.03266 52.351633,138.76854 52.349986,138.72306 52.789182,137.55305 52.897049,137.26569 53.014994,136.98753 53.123823,136.70105 53.203264,136.49192 53.485054,136.19998 53.353914,136.06638 51.16945,133.84087 51.423136,133.45237 50.849219,134.79816 49.978918,136.42104 49.089253,138.01881 48.212531,139.63342 46.757342,142.28464 45.31661,144.96609 43.727358,147.43079 43.146391,148.24698 42.576308,149.07013 41.878273,149.64966 41.716422,149.78404 41.547892,149.90211 41.373845,149.9933 41.232504,150.06737 40.788543,150.11442 40.936665,150.14305 41.376866,150.22814 41.823901,150.15838 42.267521,150.16604 41.347957,150.70079 40.998194,149.73192 40.411605,148.76652 39.694013,147.56415 39.005687,146.28542 37.984985,145.6857 37.256471,145.73749 36.523523,145.70696 35.79944,145.84108 35.235058,145.9456 34.023004,147.67454 33.577608,148.2375 32.530773,149.73793 31.535691,151.32096 30.651777,153.05669 30.032514,154.2689 29.453023,155.54959 28.758788,156.66027 29.075003,155.28143 28.803164,156.14377 30.961497,157.46454 30.998259,157.48704 30.931952,157.69944 30.926054,157.63914 30.895027,157.32191 30.947073,156.99832 30.958357,156.67797 30.966324,156.45179 30.973464,156.22554 30.981016,155.99931 31.075059,153.56813 31.154243,151.13508 31.291832,148.70856 31.502101,144.92642 31.679886,141.14031 31.810734,137.3495 31.965508,132.70189 32.170435,128.05444 32.606223,123.44605 33.112966,118.29137 33.688774,113.15242 34.377685,108.04758 34.940195,104.05863 35.494914,100.06506 36.135606,96.104001 36.862866,91.957937 37.696465,87.848434 38.839992,83.924063 40.034383,79.987181 41.379829,76.139578 43.356541,72.984929 44.981987,70.529475 46.778154,68.282728 48.984903,67.216083 49.26605,67.130324 49.563638,67.12821 49.828343,66.958805 49.917291,66.90188 49.45192,66.878001 49.547187,66.856237 50.499409,66.638709 51.464461,67.148166 52.25762,67.912711 53.31707,69.051403 54.280754,70.362086 55.289312,71.601433 55.289312,71.601433 56.498428,70.588874 56.498428,70.588874 Z" />
  </g>
</svg>
